<svg width="472" height="596" viewBox="0 0 472 596" fill="none" xmlns="http://www.w3.org/2000/svg">
<path fill-rule="evenodd" clip-rule="evenodd" d="M376.895 4.11208C366.682 10.4761 359.48 19.206 345.072 42.6847C322.931 78.7621 306.77 92.9389 287.791 92.9389C274.032 92.9389 266.821 88.5614 242.673 65.5572C219.448 43.4317 211.395 39.8103 199.311 46.0609C191.19 50.2589 184.161 59.3702 172.774 80.4514C162.389 99.6798 154.951 107.919 145.02 111.198C135.7 114.274 127.901 110.946 110.11 96.3036C95.343 84.1522 81.5954 77.0457 72.8474 77.0457C55.1152 77.0457 36.9221 94.9119 22.3185 126.666C16.7786 138.711 9.49047 153.673 6.1234 159.917L0 171.269V315.62V459.973L6.87945 471.146C14.7511 483.933 33.5913 497.789 48.1177 501.474C54.2365 503.027 99.4593 503.89 174.695 503.89C272.508 503.89 291.753 504.403 291.753 507.012C291.753 510.193 285.564 524.258 264.73 568.416C258.298 582.05 253.316 594.016 253.661 595.003C254.007 595.991 290.05 576.819 333.756 552.398C377.462 527.977 420.144 504.494 428.604 500.21C447.621 490.583 460.334 479.328 466.446 466.702C471.009 457.271 471.118 453.752 471.118 315.045V173.045L464.725 160.805C459.346 150.506 458.615 147.123 460.109 139.483C463.29 123.218 462.457 76.8867 458.731 62.8168C451.397 35.1264 435.229 13.0349 415.858 4.23922C403.518 -1.36198 385.774 -1.42101 376.895 4.11208ZM400.205 101.553L399.599 159.917H392.788H385.976L385.368 102.021C384.825 50.3134 385.161 43.8313 388.519 41.3746C391.153 39.447 393.558 39.3085 396.545 40.9069C400.573 43.0639 400.778 46.4287 400.205 101.553ZM375.539 62.0221C377.324 64.1745 377.948 76.7846 377.519 102.077C376.986 133.623 376.345 139.34 373.112 141.377C370.369 143.104 368.34 142.941 365.733 140.777C362.713 138.271 362.137 131.682 362.137 99.6616C362.137 61.2978 362.477 59.6132 370.374 59.0615C371.782 58.9638 374.107 60.2943 375.539 62.0221ZM419.847 60.2602C425.224 62.3218 425.219 136.316 419.843 140.777C417.236 142.941 415.206 143.104 412.464 141.377C409.23 139.34 408.59 133.623 408.057 102.077C407.353 60.5758 408.654 55.9646 419.847 60.2602ZM352.891 84.7947C354.485 86.7155 355.28 93.679 354.871 102.155C354.156 117.019 350.564 122.328 343.147 119.483C340.172 118.341 339.432 114.722 339.432 101.335C339.432 92.1374 340.113 83.932 340.947 83.101C343.54 80.5081 350.106 81.439 352.891 84.7947ZM445.008 100.854C445.008 116.504 444.45 119.094 440.926 119.773C433.288 121.245 430.25 115.918 430.25 101.063C430.25 86.0389 432.957 80.994 440.44 82.0679C444.581 82.6605 445.008 84.4178 445.008 100.854ZM133.35 271.062C149.752 277.914 162.26 299.631 159.199 315.942C156.868 328.377 146.474 342.268 135.541 347.561C115.264 357.378 91.3606 349.375 80.1355 329.009C73.5308 317.027 75.2904 296.019 83.8341 284.817C95.309 269.77 116.304 263.94 133.35 271.062ZM368.753 272.204C385.479 280.739 396.082 299.817 393.056 315.942C392.257 320.204 388.812 327.994 385.404 333.252C368.771 358.904 331.063 357.451 314.144 330.505C307.203 319.455 308.992 296.219 317.656 284.862C329.753 269.003 351.779 263.545 368.753 272.204Z" fill="url(#paint0_linear_9_42)"/>
<defs>
<linearGradient id="paint0_linear_9_42" x1="235.559" y1="0" x2="235.559" y2="595.04" gradientUnits="userSpaceOnUse">
<stop stop-color="#FFFDFD"/>
<stop offset="1" stop-color="white" stop-opacity="0"/>
</linearGradient>
</defs>
</svg>
