<svg width="45" height="57" viewBox="0 0 45 57" fill="none" xmlns="http://www.w3.org/2000/svg">
<path fill-rule="evenodd" clip-rule="evenodd" d="M36 0.392775C35.0245 1.00065 34.3366 1.83451 32.9604 4.07713C30.8455 7.52315 29.3018 8.87728 27.489 8.87728C26.1748 8.87728 25.486 8.45915 23.1794 6.26185C20.9611 4.14848 20.1919 3.80258 19.0377 4.39961C18.262 4.8006 17.5906 5.67089 16.503 7.6845C15.511 9.52115 14.8006 10.3082 13.852 10.6213C12.9617 10.9152 12.2168 10.5972 10.5174 9.19867C9.10691 8.038 7.79378 7.3592 6.95819 7.3592C5.26446 7.3592 3.5267 9.06573 2.13181 12.0988C1.60265 13.2493 0.906505 14.6785 0.584891 15.2749L0 16.3592V30.1472V43.9354L0.657107 45.0026C1.40899 46.224 3.20855 47.5475 4.59607 47.8995C5.18053 48.0479 9.5001 48.1303 16.6864 48.1303C26.0293 48.1303 27.8675 48.1793 27.8675 48.4285C27.8675 48.7323 27.2763 50.0758 25.2863 54.2936C24.6719 55.5959 24.1961 56.7388 24.2291 56.8332C24.2621 56.9275 27.7048 55.0963 31.8795 52.7636C36.0542 50.431 40.1311 48.1879 40.9392 47.7787C42.7556 46.8592 43.9699 45.7842 44.5537 44.5782C44.9896 43.6773 45 43.3412 45 30.0923V16.5288L44.3893 15.3597C43.8755 14.3759 43.8057 14.0528 43.9484 13.3231C44.2522 11.7694 44.1726 7.34402 43.8168 6.00009C43.1163 3.35518 41.572 1.24506 39.7217 0.404919C38.543 -0.130093 36.8482 -0.135731 36 0.392775ZM38.2266 9.70007L38.1687 15.2749H37.5181H36.8675L36.8093 9.74474C36.7575 4.8058 36.7896 4.18665 37.1104 3.952C37.3619 3.76788 37.5916 3.75465 37.877 3.90732C38.2617 4.11335 38.2812 4.43474 38.2266 9.70007ZM35.8705 5.92419C36.041 6.12978 36.1006 7.33426 36.0596 9.75017C36.0087 12.7633 35.9475 13.3094 35.6387 13.5039C35.3767 13.669 35.1828 13.6533 34.9339 13.4467C34.6454 13.2073 34.5904 12.5779 34.5904 9.51942C34.5904 5.85501 34.6229 5.69409 35.3772 5.6414C35.5116 5.63207 35.7337 5.75915 35.8705 5.92419ZM40.1027 5.7559C40.6162 5.95282 40.6158 13.0205 40.1023 13.4467C39.8533 13.6533 39.6594 13.669 39.3974 13.5039C39.0886 13.3094 39.0275 12.7633 38.9765 9.75016C38.9093 5.78605 39.0335 5.34559 40.1027 5.7559ZM33.7073 8.09937C33.8595 8.28284 33.9354 8.94797 33.8964 9.75754C33.8281 11.1774 33.485 11.6844 32.7765 11.4127C32.4924 11.3036 32.4217 10.9579 32.4217 9.67925C32.4217 8.80072 32.4867 8.01696 32.5663 7.93759C32.814 7.68993 33.4412 7.77884 33.7073 8.09937ZM42.506 9.63328C42.506 11.1281 42.4527 11.3756 42.1161 11.4404C41.3866 11.581 41.0964 11.0722 41.0964 9.65323C41.0964 8.21821 41.3549 7.73634 42.0697 7.83891C42.4653 7.89552 42.506 8.06337 42.506 9.63328ZM12.7373 25.8912C14.3039 26.5457 15.4986 28.62 15.2063 30.178C14.9836 31.3658 13.9908 32.6926 12.9466 33.1981C11.0097 34.1358 8.72653 33.3713 7.65434 31.426C7.02347 30.2816 7.19154 28.275 8.00762 27.2049C9.10366 25.7678 11.109 25.2108 12.7373 25.8912ZM35.2223 26.0002C36.82 26.8154 37.8327 28.6378 37.5437 30.178C37.4673 30.585 37.1383 31.3291 36.8128 31.8314C35.2241 34.2815 31.6223 34.1427 30.0062 31.569C29.3433 30.5135 29.5141 28.294 30.3417 27.2093C31.4972 25.6945 33.601 25.1731 35.2223 26.0002Z" fill="#005DFF"/>
</svg>
